<svg width="1467" height="257" viewBox="0 0 1467 257" fill="none" xmlns="http://www.w3.org/2000/svg">
<path d="M134.743 255.7C134.743 255.7 126.373 251.76 122.543 249.59C97.6026 235.45 72.8426 220.98 48.0926 206.54C45.7126 205.15 43.9226 205.8 42.0926 206.87C29.4726 214.09 16.8826 221.34 4.37256 228.73C1.91256 230.18 0.372559 231 0.372559 227.14C0.372559 193.81 0.372559 160.48 0.372559 126.37C27.9826 141.77 54.1926 157.25 81.4426 172.85C83.8826 174.23 86.5226 177.91 88.7126 176.48C90.9026 175.05 89.5026 170.77 89.5326 167.76C89.6426 155.83 89.4726 143.92 89.6526 132C89.6526 129 88.7226 127.77 86.1526 126.31C58.7926 110.76 33.0726 94.9099 5.25256 79.7699C20.0426 70.9799 33.5726 63.6099 47.9526 55.0599C50.4026 53.5199 51.8526 53.7899 54.2426 55.1899C80.1826 70.0999 106.003 85.2899 132.153 99.7699C134.803 101.07 134.743 102.89 134.743 105.09C134.733 155.15 134.743 255.7 134.743 255.7Z" fill="#F39E1F"/>
<path d="M177.692 256.43C177.692 205.35 177.692 155.11 177.632 104.87C177.632 102.14 178.552 100.78 180.952 99.4099C206.432 84.7899 231.812 69.9899 257.252 55.2999C259.412 54.0399 261.512 53.0999 264.302 54.7299C277.742 62.6199 291.302 70.2499 304.832 77.9999C305.5 78.556 306.097 79.1906 306.612 79.8899C279.122 95.5799 252.082 111.44 224.682 127.2C223.382 127.94 222.822 128.57 222.832 130.03C222.832 145.58 222.832 161.13 222.832 177.52C237.072 169.32 250.102 162.05 263.742 153.93C265.552 152.86 267.272 152.37 269.322 153.56C283.522 161.87 297.772 170.11 312.582 178.69L177.692 256.43Z" fill="#F39E1F"/>
<path d="M209.463 31.7898C209.463 33.5998 207.593 33.7898 206.403 34.4698C190.613 43.6398 174.743 52.6998 159.053 62.0698C155.763 64.0698 153.663 62.2798 151.383 60.9498C134.963 51.4398 118.603 41.8198 101.493 31.7998C118.473 21.9198 135.433 12.0532 152.373 2.19983C154.943 -0.100169 157.523 1.44983 160.103 2.19983L206.453 29.0998C207.633 29.7898 209.483 29.9798 209.463 31.7898Z" fill="#F39E1F"/>
<path d="M405.783 188.71V65.5886H452.227C460.401 65.5886 466.644 65.9806 470.955 66.7644C477.002 67.7722 482.069 69.7039 486.156 72.5593C490.243 75.3588 493.519 79.3061 495.982 84.4011C498.502 89.4962 499.762 95.0951 499.762 101.198C499.762 111.668 496.43 120.542 489.768 127.821C483.105 135.044 471.067 138.655 453.654 138.655H422.076V188.71H405.783ZM422.076 124.126H453.906C464.432 124.126 471.907 122.166 476.33 118.247C480.753 114.328 482.965 108.813 482.965 101.702C482.965 96.5509 481.649 92.1557 479.018 88.5164C476.442 84.821 473.027 82.3855 468.771 81.2097C466.028 80.4819 460.961 80.1179 453.57 80.1179H422.076V124.126Z" fill="#231F20"/>
<path d="M515.551 128.745C515.551 108.309 521.038 92.3236 532.012 80.7898C542.986 69.2 557.151 63.405 574.508 63.405C585.874 63.405 596.12 66.1205 605.246 71.5515C614.372 76.9825 621.315 84.5691 626.074 94.3113C630.889 103.997 633.297 114.999 633.297 127.317C633.297 139.803 630.777 150.973 625.738 160.827C620.699 170.681 613.561 178.156 604.322 183.251C595.084 188.29 585.118 190.809 574.424 190.809C562.834 190.809 552.476 188.01 543.35 182.411C534.223 176.812 527.309 169.169 522.605 159.483C517.902 149.797 515.551 139.551 515.551 128.745ZM532.348 128.997C532.348 143.834 536.323 155.536 544.273 164.102C552.28 172.613 562.302 176.868 574.34 176.868C586.602 176.868 596.68 172.557 604.574 163.934C612.525 155.312 616.5 143.078 616.5 127.233C616.5 117.211 614.792 108.477 611.377 101.03C608.018 93.5274 603.062 87.7325 596.512 83.6453C590.017 79.502 582.71 77.4304 574.592 77.4304C563.058 77.4304 553.12 81.4057 544.777 89.3562C536.491 97.2507 532.348 110.464 532.348 128.997Z" fill="#231F20"/>
<path d="M648.834 149.153L664.203 147.809C664.931 153.968 666.611 159.035 669.242 163.01C671.93 166.93 676.073 170.121 681.672 172.585C687.271 174.992 693.57 176.196 700.568 176.196C706.783 176.196 712.27 175.272 717.029 173.425C721.788 171.577 725.316 169.057 727.611 165.866C729.963 162.619 731.139 159.091 731.139 155.284C731.139 151.421 730.019 148.061 727.779 145.206C725.54 142.294 721.844 139.859 716.693 137.899C713.39 136.611 706.083 134.624 694.773 131.936C683.464 129.193 675.541 126.617 671.006 124.21C665.127 121.13 660.732 117.323 657.82 112.788C654.965 108.197 653.537 103.074 653.537 97.4187C653.537 91.2039 655.301 85.4089 658.828 80.0339C662.355 74.6029 667.507 70.4877 674.281 67.6882C681.056 64.8888 688.587 63.489 696.873 63.489C705.999 63.489 714.034 64.9727 720.977 67.9402C727.975 70.8516 733.35 75.1628 737.102 80.8738C740.853 86.5847 742.868 93.0515 743.148 100.274L727.527 101.45C726.688 93.6674 723.832 87.7885 718.961 83.8132C714.146 79.838 707.007 77.8503 697.545 77.8503C687.691 77.8503 680.496 79.67 675.961 83.3093C671.482 86.8927 669.242 91.2319 669.242 96.3269C669.242 100.75 670.838 104.389 674.029 107.245C677.165 110.1 685.339 113.04 698.553 116.063C711.822 119.031 720.921 121.634 725.848 123.874C733.014 127.177 738.305 131.376 741.721 136.471C745.136 141.51 746.844 147.333 746.844 153.94C746.844 160.491 744.968 166.678 741.217 172.501C737.465 178.268 732.062 182.775 725.008 186.022C718.009 189.214 710.115 190.809 701.324 190.809C690.182 190.809 680.832 189.186 673.273 185.938C665.771 182.691 659.864 177.82 655.553 171.325C651.298 164.774 649.058 157.384 648.834 149.153Z" fill="#231F20"/>
<path d="M800.426 188.71V80.1179H759.861V65.5886H857.451V80.1179H816.719V188.71H800.426Z" fill="#231F20"/>
<path d="M847.961 188.71L895.244 65.5886H912.797L963.188 188.71H944.627L930.266 151.421H878.783L865.262 188.71H847.961ZM883.486 138.151H925.227L912.377 104.053C908.458 93.6954 905.546 85.185 903.643 78.5222C902.075 86.4167 899.863 94.2553 897.008 102.038L883.486 138.151Z" fill="#231F20"/>
<path d="M1033.82 140.419V125.973L1085.97 125.889V171.577C1077.97 177.96 1069.71 182.775 1061.2 186.022C1052.69 189.214 1043.95 190.809 1034.99 190.809C1022.9 190.809 1011.9 188.234 1001.99 183.083C992.134 177.876 984.688 170.373 979.648 160.575C974.609 150.777 972.09 139.831 972.09 127.737C972.09 115.755 974.581 104.585 979.564 94.2273C984.604 83.8132 991.826 76.0867 1001.23 71.0476C1010.64 66.0085 1021.47 63.489 1033.73 63.489C1042.64 63.489 1050.67 64.9447 1057.84 67.8562C1065.06 70.7117 1070.72 74.7149 1074.8 79.866C1078.89 85.017 1082 91.7358 1084.12 100.022L1069.43 104.053C1067.58 97.7826 1065.28 92.8556 1062.54 89.2722C1059.8 85.6889 1055.88 82.8334 1050.78 80.7058C1045.69 78.5222 1040.03 77.4304 1033.82 77.4304C1026.37 77.4304 1019.93 78.5782 1014.5 80.8738C1009.07 83.1134 1004.68 86.0808 1001.32 89.7761C998.013 93.4714 995.438 97.5307 993.59 101.954C990.454 109.568 988.887 117.827 988.887 126.729C988.887 137.703 990.762 146.885 994.514 154.276C998.321 161.667 1003.84 167.154 1011.06 170.737C1018.28 174.32 1025.95 176.112 1034.07 176.112C1041.12 176.112 1048.01 174.768 1054.73 172.081C1061.45 169.337 1066.54 166.426 1070.02 163.346V140.419H1033.82Z" fill="#231F20"/>
<path d="M1110.33 188.71V65.5886H1164.92C1175.89 65.5886 1184.23 66.7084 1189.95 68.948C1195.66 71.1316 1200.22 75.0229 1203.63 80.6218C1207.05 86.2208 1208.76 92.4076 1208.76 99.1824C1208.76 107.917 1205.93 115.279 1200.28 121.27C1194.62 127.261 1185.89 131.068 1174.07 132.692C1178.38 134.764 1181.66 136.807 1183.9 138.823C1188.66 143.19 1193.16 148.649 1197.42 155.2L1218.84 188.71H1198.34L1182.05 163.094C1177.29 155.704 1173.37 150.049 1170.29 146.13C1167.21 142.21 1164.44 139.467 1161.98 137.899C1159.57 136.331 1157.11 135.24 1154.59 134.624C1152.74 134.232 1149.72 134.036 1145.52 134.036H1126.62V188.71H1110.33ZM1126.62 119.927H1161.64C1169.09 119.927 1174.91 119.171 1179.11 117.659C1183.31 116.091 1186.5 113.628 1188.69 110.268C1190.87 106.853 1191.96 103.158 1191.96 99.1824C1191.96 93.3595 1189.83 88.5723 1185.58 84.821C1181.38 81.0697 1174.72 79.1941 1165.59 79.1941H1126.62V119.927Z" fill="#231F20"/>
<path d="M1220.85 188.71L1268.13 65.5886H1285.69L1336.08 188.71H1317.52L1303.16 151.421H1251.67L1238.15 188.71H1220.85ZM1256.38 138.151H1298.12L1285.27 104.053C1281.35 93.6954 1278.44 85.185 1276.53 78.5222C1274.97 86.4167 1272.75 94.2553 1269.9 102.038L1256.38 138.151Z" fill="#231F20"/>
<path d="M1348.59 188.71V65.5886H1373.12L1402.26 152.764C1404.95 160.883 1406.9 166.958 1408.14 170.989C1409.54 166.51 1411.72 159.931 1414.69 151.253L1444.17 65.5886H1466.09V188.71H1450.38V85.6609L1414.6 188.71H1399.91L1364.3 83.8972V188.71H1348.59Z" fill="#231F20"/>
</svg>
