<svg width="1467" height="257" viewBox="0 0 1467 257" fill="none" xmlns="http://www.w3.org/2000/svg">
<path d="M134.743 255.7C134.743 255.7 126.373 251.76 122.543 249.59C97.6026 235.45 72.8426 220.98 48.0926 206.54C45.7126 205.15 43.9226 205.8 42.0926 206.87C29.4726 214.09 16.8826 221.34 4.37256 228.73C1.91256 230.18 0.372559 231 0.372559 227.14C0.372559 193.81 0.372559 160.48 0.372559 126.37C27.9826 141.77 54.1926 157.25 81.4426 172.85C83.8826 174.23 86.5226 177.91 88.7126 176.48C90.9026 175.05 89.5026 170.77 89.5326 167.76C89.6426 155.83 89.4726 143.92 89.6526 132C89.6526 129 88.7226 127.77 86.1526 126.31C58.7926 110.76 33.0726 94.9099 5.25256 79.7699C20.0426 70.9799 33.5726 63.6099 47.9526 55.0599C50.4026 53.5199 51.8526 53.7899 54.2426 55.1899C80.1826 70.0999 106.003 85.2899 132.153 99.7699C134.803 101.07 134.743 102.89 134.743 105.09C134.733 155.15 134.743 255.7 134.743 255.7Z" fill="#F39E1F"/>
<path d="M177.692 256.43C177.692 205.35 177.692 155.11 177.632 104.87C177.632 102.14 178.552 100.78 180.952 99.4099C206.432 84.7899 231.812 69.9899 257.252 55.2999C259.412 54.0399 261.512 53.0999 264.302 54.7299C277.742 62.6199 291.302 70.2499 304.832 77.9999C305.5 78.556 306.097 79.1906 306.612 79.8899C279.122 95.5799 252.082 111.44 224.682 127.2C223.382 127.94 222.822 128.57 222.832 130.03C222.832 145.58 222.832 161.13 222.832 177.52C237.072 169.32 250.102 162.05 263.742 153.93C265.552 152.86 267.272 152.37 269.322 153.56C283.522 161.87 297.772 170.11 312.582 178.69L177.692 256.43Z" fill="#F39E1F"/>
<path d="M209.463 31.7898C209.463 33.5998 207.593 33.7898 206.403 34.4698C190.613 43.6398 174.743 52.6998 159.053 62.0698C155.763 64.0698 153.663 62.2798 151.383 60.9498C134.963 51.4398 118.603 41.8198 101.493 31.7998C118.473 21.9198 135.433 12.0532 152.373 2.19983C154.943 -0.100168 157.523 1.44983 160.103 2.19983L206.453 29.0998C207.633 29.7898 209.483 29.9798 209.463 31.7898Z" fill="#F39E1F"/>
</svg>
