<svg width="231" height="190" viewBox="0 0 231 190" fill="none" xmlns="http://www.w3.org/2000/svg">
<path d="M99.1803 188.848C99.1803 188.848 93.0064 185.942 90.1813 184.341C71.7849 173.911 53.5213 163.238 35.2651 152.587C33.5096 151.561 32.1892 152.041 30.8394 152.83C21.5305 158.156 12.2439 163.504 3.01617 168.955C1.20162 170.024 0.0656738 170.629 0.0656738 167.782C0.0656738 143.197 0.0656738 118.612 0.0656738 93.4514C20.4315 104.811 39.7646 116.229 59.8649 127.736C61.6647 128.754 63.612 131.469 65.2274 130.414C66.8428 129.359 65.8101 126.202 65.8323 123.982C65.9134 115.182 65.788 106.397 65.9208 97.6042C65.9208 95.3913 65.2348 94.484 63.3391 93.4071C43.1577 81.9371 24.186 70.2457 3.66528 59.0781C14.5747 52.5943 24.5548 47.1581 35.1618 40.8514C36.969 39.7154 38.0386 39.9146 39.8015 40.9473C58.9355 51.9452 77.9809 63.1498 97.2698 73.8306C99.2245 74.7895 99.1803 76.1319 99.1803 77.7547C99.1729 114.68 99.1803 188.848 99.1803 188.848Z" fill="#F39E1F"/>
<path d="M130.861 189.387C130.861 151.709 130.861 114.651 130.817 77.5925C130.817 75.5788 131.496 74.5756 133.266 73.565C152.061 62.781 170.782 51.8641 189.547 41.0284C191.14 40.099 192.689 39.4056 194.747 40.608C204.661 46.4278 214.663 52.0559 224.643 57.7725C225.135 58.1827 225.576 58.6508 225.956 59.1666C205.679 70.7399 185.733 82.4387 165.522 94.0636C164.563 94.6095 164.15 95.0742 164.158 96.1511C164.158 107.621 164.158 119.091 164.158 131.181C174.662 125.132 184.273 119.77 194.334 113.78C195.669 112.991 196.938 112.63 198.45 113.507C208.924 119.637 219.435 125.715 230.36 132.044L130.861 189.387Z" fill="#F39E1F"/>
<path d="M154.296 23.6868C154.296 25.0219 152.917 25.162 152.039 25.6636C140.392 32.4276 128.686 39.1105 117.112 46.0221C114.685 47.4973 113.136 46.177 111.455 45.1959C99.3428 38.1811 87.2753 31.0852 74.6545 23.6942C87.1794 16.4064 99.6895 9.12854 112.185 1.86048C114.081 0.163948 115.984 1.30727 117.887 1.86048L152.076 21.7026C152.946 22.2115 154.311 22.3517 154.296 23.6868Z" fill="#F39E1F"/>
</svg>
